<svg xmlns="http://www.w3.org/2000/svg" xmlns:xlink="http://www.w3.org/1999/xlink" width="1366" zoomAndPan="magnify" viewBox="0 0 1024.5 576" height="768" preserveAspectRatio="xMidYMid meet" version="1.0"><defs><clipPath id="78c731a8b2"><path d="M 813 208.339844 L 924 208.339844 L 924 332 L 813 332 Z M 813 208.339844 " clip-rule="nonzero"/></clipPath><clipPath id="ce97ecdcd3"><path d="M 791.425781 226 L 915 226 L 915 368 L 791.425781 368 Z M 791.425781 226 " clip-rule="nonzero"/></clipPath></defs><g clip-path="url(#78c731a8b2)"><path fill="#6aae7d" d="M 813.917969 331.472656 C 813.917969 331.472656 819.894531 328.453125 824.335938 329.605469 L 821.234375 326.972656 C 821.234375 326.972656 826.417969 323.359375 831.535156 324.746094 C 831.535156 324.746094 831.0625 319.257812 826.839844 319.003906 C 826.839844 319.003906 832.269531 317.574219 838.339844 319.109375 C 838.339844 319.109375 835.875 315.152344 829.210938 315.078125 C 829.210938 315.078125 838.527344 314.972656 843.960938 316.863281 C 843.960938 316.863281 841.34375 310.34375 833.308594 310.902344 C 833.308594 310.902344 838.410156 310.109375 842.988281 312.042969 C 847.566406 313.976562 854.417969 308.851562 854.417969 308.851562 C 854.417969 308.851562 845.683594 310.042969 840.472656 306.28125 C 840.472656 306.28125 854.886719 310.398438 862.148438 303.332031 C 862.148438 303.332031 859.421875 304.3125 856.601562 303.632812 C 853.777344 302.945312 845.078125 300.855469 840.902344 302.296875 C 840.902344 302.296875 848.539062 299.636719 859.082031 301.484375 C 869.628906 303.324219 875 291.425781 875 291.425781 C 875 291.425781 867.273438 293.890625 859.136719 293.882812 C 859.136719 293.882812 880.316406 289.285156 885.746094 280.761719 C 885.746094 280.761719 896.097656 273.839844 897.0625 267.992188 C 897.0625 267.992188 887.707031 272.726562 883.546875 271.734375 C 883.546875 271.734375 902.878906 264.949219 907.277344 257.265625 C 907.277344 257.265625 910.40625 248.800781 912.105469 246.675781 C 913.800781 244.550781 917.671875 238.226562 917.550781 236.792969 C 917.550781 236.792969 914.777344 239.449219 911.332031 240.699219 C 911.332031 240.699219 918.128906 235.285156 920.4375 230.933594 C 922.746094 226.578125 924.640625 212.167969 922.734375 208.324219 C 922.734375 208.324219 919.082031 214.84375 916.335938 216.171875 C 913.59375 217.5 908.125 223.542969 907.628906 225.058594 C 907.628906 225.058594 903.0625 230.132812 898.976562 231.285156 C 894.894531 232.4375 889.949219 241.0625 886.800781 249.648438 C 886.800781 249.648438 886.414062 241.324219 889.964844 237.328125 L 873.136719 250.082031 C 873.136719 250.082031 867.363281 255.167969 864.53125 259.765625 C 864.53125 259.765625 864.382812 257.398438 866.015625 255.671875 C 866.015625 255.671875 860.980469 260.21875 858.96875 262.894531 C 858.96875 262.894531 858.542969 260.617188 859.875 259.363281 C 859.875 259.363281 851.964844 266.488281 849.253906 271.953125 C 849.253906 271.953125 849.007812 270.9375 849.667969 270.164062 C 849.667969 270.164062 836.679688 275.808594 829.761719 290.3125 C 829.761719 290.3125 825.578125 298.414062 825.066406 300.894531 C 825.066406 300.894531 824.792969 297.023438 825.890625 295.144531 C 825.890625 295.144531 819.734375 300.671875 819.835938 309.863281 C 819.835938 309.863281 818.621094 304.988281 819.648438 303.417969 C 819.648438 303.417969 815.917969 306.980469 817.011719 314.496094 C 817.011719 314.496094 815.789062 312.964844 815.957031 312.0625 C 815.957031 312.0625 813.570312 320.9375 814.273438 325.96875 L 813.917969 331.472656 " fill-opacity="1" fill-rule="nonzero"/></g><g clip-path="url(#ce97ecdcd3)"><path fill="#6aae7d" d="M 791.652344 367.632812 C 791.652344 367.632812 792.90625 362.101562 794.691406 361.082031 C 794.691406 361.082031 797.136719 359.285156 798.554688 358.53125 C 799.976562 357.773438 801.199219 354.632812 801.199219 354.632812 C 801.199219 354.632812 808.878906 338.378906 814.179688 331.109375 C 814.179688 331.109375 829.460938 306.398438 851.5625 284.871094 C 851.5625 284.871094 862.503906 274.59375 870.625 268.835938 C 870.625 268.835938 909 239.066406 914.246094 226.417969 C 914.246094 226.417969 911.679688 235.042969 869.230469 268.714844 C 869.230469 268.714844 840.960938 290.058594 827.761719 308.296875 C 827.761719 308.296875 807.585938 333.738281 800.882812 345.71875 C 800.882812 345.71875 791.433594 359.96875 791.652344 367.632812 " fill-opacity="1" fill-rule="nonzero"/></g><path fill="#6aae7d" d="M 838.90625 340.4375 C 838.90625 340.960938 838.480469 341.386719 837.957031 341.386719 L 817.933594 341.386719 C 817.40625 341.386719 816.984375 340.960938 816.984375 340.4375 C 816.984375 339.910156 817.40625 339.484375 817.933594 339.484375 L 837.957031 339.484375 C 838.480469 339.484375 838.90625 339.910156 838.90625 340.4375 " fill-opacity="1" fill-rule="nonzero"/><path fill="#6aae7d" d="M 840.046875 345.695312 C 838.144531 345.570312 834.503906 343.953125 837.097656 341.386719 L 818.789062 341.386719 C 821.386719 343.953125 817.742188 345.570312 815.84375 345.695312 C 813.941406 345.820312 814.257812 348.164062 814.257812 348.164062 L 814.257812 364.511719 C 814.195312 366.542969 818.375 366.480469 818.375 366.480469 L 837.511719 366.480469 C 837.511719 366.480469 841.691406 366.542969 841.628906 364.511719 L 841.632812 348.164062 C 841.632812 348.164062 841.945312 345.820312 840.046875 345.695312 " fill-opacity="1" fill-rule="nonzero"/><path fill="#6aae7d" d="M 832.316406 341.890625 C 832.316406 341.890625 831.238281 344.554688 833.644531 345.570312 C 836.054688 346.582031 836.6875 347.914062 836.5625 355.390625 L 836.574219 363.6875 C 836.574219 363.6875 836.5625 365.019531 836.148438 365.433594 L 839.886719 365.433594 C 839.886719 365.433594 840.839844 365.050781 840.871094 363.054688 L 840.871094 349.84375 C 840.871094 349.84375 841.1875 346.519531 838.335938 345.980469 C 835.484375 345.441406 834.535156 343.191406 835.230469 341.890625 L 832.316406 341.890625 " fill-opacity="1" fill-rule="nonzero"/><path fill="#6aae7d" d="M 135.59375 259.988281 C 133.695312 261.699219 103.222656 334.371094 103.222656 337.191406 C 103.222656 339.933594 105.523438 342.230469 108.273438 342.230469 C 111.085938 342.230469 112.480469 341.425781 113.683594 339.101562 C 114.226562 338.050781 120.203125 323.621094 126.960938 307.03125 C 136.738281 283.039062 139.371094 277.097656 139.820312 277.984375 C 140.128906 278.601562 145.792969 292.707031 152.398438 309.332031 C 160.699219 330.222656 164.859375 339.976562 165.859375 340.898438 C 169.246094 344.019531 174.945312 341.699219 174.945312 337.195312 C 174.945312 334.121094 144.644531 261.804688 142.597656 259.988281 C 141.667969 259.164062 140.328125 258.652344 139.085938 258.652344 C 137.835938 258.652344 136.515625 259.15625 135.59375 259.988281 M 644.675781 260.109375 L 643.21875 261.5625 L 643.21875 275.816406 C 643.21875 283.65625 643.113281 290.070312 642.984375 290.070312 C 642.851562 290.070312 641.367188 289.140625 639.679688 288.003906 C 631.019531 282.179688 617.039062 281.992188 608.226562 287.582031 C 598.941406 293.472656 594.003906 302.25 594.035156 312.804688 C 594.0625 321.601562 596.214844 327.101562 602.042969 333.261719 C 608.464844 340.050781 614.746094 342.832031 623.636719 342.816406 C 632.007812 342.804688 638.339844 340.121094 644.464844 333.992188 C 648.589844 329.871094 650.753906 326.277344 652.339844 320.933594 C 653.160156 318.167969 653.292969 313.78125 653.277344 289.8125 C 653.261719 268.816406 653.078125 261.679688 652.535156 260.972656 C 650.53125 258.359375 646.828125 257.953125 644.675781 260.109375 M 319.578125 283.621094 C 311.964844 284.84375 302.449219 291.722656 298.703125 298.714844 C 292.4375 310.398438 294.796875 325.199219 304.398438 334.417969 C 313.632812 343.285156 326.511719 345.316406 338.324219 339.761719 C 341.753906 338.152344 347.910156 332.476562 350.335938 328.695312 C 353.902344 323.140625 355.367188 316.085938 354.480469 308.742188 C 353.019531 296.667969 342 285.492188 329.652344 283.566406 C 325.265625 282.882812 324.121094 282.886719 319.578125 283.621094 M 422.363281 283.546875 C 410.566406 285.277344 401.699219 293.207031 398.703125 304.707031 C 397.601562 308.945312 397.574219 317.242188 398.648438 321.285156 C 401.40625 331.632812 410.566406 340.265625 420.875 342.21875 C 430.074219 343.964844 439.285156 341.808594 445.65625 336.425781 C 448.355469 334.144531 448.667969 332.203125 446.710938 329.875 C 444.589844 327.359375 442.839844 327.457031 437.136719 330.414062 C 433.042969 332.535156 432.007812 332.824219 428.347656 332.847656 C 423.257812 332.886719 420.269531 332.117188 416.699219 329.851562 C 411.496094 326.554688 408.488281 320.359375 408.488281 312.9375 C 408.488281 304.878906 411.824219 298.628906 417.972656 295.164062 C 420.964844 293.480469 421.675781 293.332031 426.570312 293.351562 C 432.546875 293.378906 435.476562 294.464844 439.3125 298.074219 C 442.273438 300.855469 444.589844 301.210938 446.9375 299.234375 C 448.332031 298.0625 448.796875 297.179688 448.796875 295.710938 C 448.796875 294.070312 448.199219 293.199219 445.109375 290.339844 C 440.914062 286.453125 436.863281 284.441406 431.480469 283.570312 C 427.375 282.902344 426.761719 282.902344 422.363281 283.546875 M 515.777344 283.757812 C 510.039062 284.785156 505.5 287.285156 500.640625 292.09375 C 493.398438 299.253906 490.394531 308.203125 492.027344 317.75 C 494.660156 333.140625 507.847656 343.589844 523.484375 342.675781 C 528.957031 342.355469 534.507812 340.496094 538.046875 337.792969 C 539.121094 336.972656 540.121094 336.304688 540.261719 336.304688 C 540.40625 336.304688 540.695312 337.15625 540.90625 338.203125 C 541.847656 342.921875 546.863281 344.5 549.808594 341 L 551.34375 339.175781 L 551.34375 324.78125 C 551.34375 316.863281 551.078125 308.949219 550.75 307.191406 C 549.703125 301.550781 546.484375 295.957031 541.769531 291.589844 C 536.765625 286.957031 531.921875 284.5 526.039062 283.605469 C 521.070312 282.847656 520.847656 282.851562 515.777344 283.757812 M 724.515625 283.566406 C 718 284.511719 713.039062 287.136719 707.746094 292.429688 C 704.3125 295.863281 701.355469 300.902344 700.148438 305.382812 C 699.054688 309.453125 699.308594 317.683594 700.671875 322.085938 C 706.050781 339.496094 726.382812 347.863281 742.960938 339.488281 C 746.75 337.574219 753.195312 331.125 755.378906 327.058594 C 758.5625 321.132812 759.609375 313.429688 758.148438 306.625 C 755.65625 295 745.394531 285.414062 733.5 283.605469 C 728.855469 282.898438 729.09375 282.898438 724.515625 283.566406 M 206.230469 284.472656 C 204.421875 285.453125 203.398438 287.023438 203.398438 288.824219 C 203.398438 290.613281 226.949219 339.988281 228.378906 341.195312 C 230.300781 342.8125 233.488281 342.535156 235.238281 340.601562 C 237.546875 338.050781 260.367188 289.445312 259.933594 288.003906 C 258.960938 284.785156 255.4375 282.964844 252.515625 284.175781 C 250.628906 284.957031 251.136719 283.972656 239.84375 308.742188 C 235.683594 317.867188 232.101562 325.539062 231.882812 325.785156 C 231.667969 326.03125 227.410156 317.359375 222.421875 306.519531 C 211.765625 283.351562 210.773438 282.003906 206.230469 284.472656 M 320.761719 294.148438 C 315.550781 295.289062 310.621094 299.023438 308.023438 303.800781 C 305.765625 307.945312 305.257812 314.957031 306.859375 319.785156 C 308.277344 324.058594 313.871094 329.746094 318.054688 331.164062 C 325.015625 333.523438 333.367188 331.832031 338.273438 327.0625 C 342.367188 323.082031 344.152344 318.753906 344.113281 312.890625 C 344.074219 307.257812 342.785156 303.875 339.191406 299.976562 C 334.867188 295.28125 326.980469 292.789062 320.761719 294.148438 M 516.339844 294.394531 C 510.546875 296.039062 505.507812 300.699219 503.351562 306.417969 C 500.722656 313.378906 502.746094 322.234375 508.0625 327.035156 C 512.480469 331.03125 514.773438 331.859375 521.410156 331.859375 C 526.453125 331.859375 527.714844 331.65625 529.882812 330.5 C 533.601562 328.511719 536.65625 325.53125 538.636719 321.960938 C 540.222656 319.101562 540.378906 318.3125 540.375 313.1875 C 540.371094 308.238281 540.179688 307.191406 538.796875 304.566406 C 536.890625 300.953125 532.628906 296.898438 529.085938 295.332031 C 525.730469 293.847656 519.8125 293.414062 516.339844 294.394531 M 619.113281 294.160156 C 601.582031 298.667969 599.011719 322.519531 615.199219 330.488281 C 625.058594 335.339844 636.226562 331.292969 641.238281 321.054688 C 642.5625 318.347656 642.84375 316.96875 642.835938 313.253906 C 642.820312 302.792969 635.347656 294.671875 625.082031 293.957031 C 622.832031 293.800781 620.144531 293.890625 619.113281 294.160156 M 724.722656 294.152344 C 718.8125 295.75 713.5625 300.023438 711.328125 305.058594 C 709.347656 309.527344 709.382812 317.023438 711.402344 321.1875 C 713.144531 324.78125 716.886719 328.640625 720.371094 330.4375 C 723.921875 332.269531 731.40625 332.6875 735.625 331.285156 C 739.371094 330.042969 744.59375 325.425781 746.34375 321.8125 C 749.984375 314.289062 748.207031 304.042969 742.367188 298.917969 C 737.769531 294.882812 729.902344 292.757812 724.722656 294.152344 " fill-opacity="1" fill-rule="evenodd"/></svg>