<svg xmlns="http://www.w3.org/2000/svg" viewBox="0 0 1024.5 576"><defs><clipPath id="a"><path d="M813 208.34h111V332H813Zm0 0"/></clipPath><clipPath id="b"><path d="M791.426 226H915v142H791.426Zm0 0"/></clipPath></defs><g clip-path="url(#a)"><path fill="#6aae7d" d="M813.918 331.473s5.977-3.02 10.418-1.868l-3.102-2.632s5.184-3.614 10.301-2.227c0 0-.472-5.488-4.695-5.742 0 0 5.43-1.43 11.5.105 0 0-2.465-3.957-9.13-4.03 0 0 9.317-.106 14.75 1.784 0 0-2.616-6.52-10.651-5.96 0 0 5.101-.794 9.68 1.14 4.577 1.934 11.429-3.191 11.429-3.191s-8.734 1.191-13.945-2.57c0 0 14.414 4.116 21.675-2.95 0 0-2.726.98-5.546.3-2.825-.687-11.524-2.777-15.7-1.335 0 0 7.637-2.66 18.18-.813 10.547 1.84 15.918-10.058 15.918-10.058s-7.727 2.465-15.863 2.457c0 0 21.18-4.598 26.61-13.121 0 0 10.35-6.922 11.316-12.77 0 0-9.356 4.735-13.516 3.742 0 0 19.332-6.785 23.73-14.468 0 0 3.13-8.465 4.828-10.59 1.696-2.125 5.567-8.45 5.446-9.883 0 0-2.774 2.656-6.219 3.906 0 0 6.797-5.414 9.106-9.765 2.308-4.356 4.203-18.766 2.296-22.61 0 0-3.652 6.52-6.398 7.848-2.742 1.328-8.211 7.371-8.707 8.887 0 0-4.567 5.074-8.652 6.226-4.082 1.153-9.028 9.778-12.176 18.363 0 0-.387-8.324 3.164-12.32l-16.828 12.754s-5.774 5.086-8.606 9.684c0 0-.148-2.368 1.485-4.094 0 0-5.036 4.547-7.047 7.223 0 0-.426-2.278.906-3.532 0 0-7.91 7.125-10.621 12.59 0 0-.246-1.015.414-1.789 0 0-12.988 5.645-19.906 20.149 0 0-4.184 8.101-4.696 10.582 0 0-.273-3.872.825-5.75 0 0-6.157 5.527-6.055 14.718 0 0-1.215-4.875-.188-6.445 0 0-3.73 3.562-2.636 11.078 0 0-1.223-1.531-1.055-2.433 0 0-2.387 8.875-1.684 13.906z"/></g><g clip-path="url(#b)"><path fill="#6aae7d" d="M791.652 367.633s1.254-5.531 3.04-6.551c0 0 2.445-1.797 3.863-2.55 1.422-.759 2.644-3.9 2.644-3.9s7.68-16.253 12.98-23.523c0 0 15.282-24.71 37.384-46.238 0 0 10.94-10.277 19.062-16.035 0 0 38.375-29.77 43.621-42.418 0 0-2.566 8.625-45.016 42.297 0 0-28.27 21.344-41.468 39.582 0 0-20.176 25.441-26.88 37.422 0 0-9.448 14.25-9.23 21.914"/></g><path fill="#6aae7d" d="M838.906 340.438a.95.95 0 0 1-.949.949h-20.023a.95.95 0 0 1-.95-.95c0-.527.422-.953.95-.953h20.023c.523 0 .95.426.95.954m1.14 5.257c-1.902-.125-5.543-1.742-2.95-4.308H818.79c2.598 2.566-1.047 4.183-2.945 4.308-1.903.125-1.586 2.47-1.586 2.47v16.347c-.063 2.031 4.117 1.968 4.117 1.968h19.137s4.18.063 4.117-1.968l.004-16.348s.312-2.344-1.586-2.469"/><path fill="#6aae7d" d="M832.316 341.89s-1.078 2.665 1.329 3.68c2.41 1.012 3.043 2.344 2.918 9.82l.011 8.298s-.011 1.332-.426 1.746h3.739s.953-.383.984-2.38v-13.21s.317-3.324-2.535-3.864c-2.852-.539-3.8-2.789-3.106-4.09z"/><path fill="#6aae7d" fill-rule="evenodd" d="M135.594 259.988c-1.899 1.711-32.371 74.383-32.371 77.203 0 2.743 2.3 5.04 5.05 5.04 2.813 0 4.207-.805 5.41-3.13.544-1.05 6.52-15.48 13.278-32.07 9.777-23.992 12.41-29.933 12.86-29.047.308.618 5.972 14.723 12.577 31.348 8.301 20.89 12.461 30.645 13.461 31.566 3.387 3.122 9.086.801 9.086-3.703 0-3.074-30.3-75.39-32.347-77.207-.93-.824-2.27-1.336-3.512-1.336-1.25 0-2.57.504-3.492 1.336m509.082.121-1.457 1.454v14.253c0 7.84-.106 14.254-.235 14.254-.132 0-1.617-.93-3.304-2.066-8.66-5.824-22.64-6.012-31.453-.422-9.286 5.89-14.223 14.668-14.192 25.223.028 8.797 2.18 14.297 8.008 20.457 6.422 6.789 12.703 9.57 21.594 9.554 8.37-.011 14.703-2.695 20.828-8.824 4.125-4.12 6.289-7.715 7.875-13.058.82-2.766.953-7.153.937-31.122-.015-20.996-.199-28.132-.742-28.84-2.004-2.613-5.707-3.019-7.86-.863m-325.097 23.512c-7.613 1.223-17.129 8.102-20.875 15.094-6.265 11.683-3.906 26.484 5.695 35.703 9.235 8.867 22.114 10.898 33.926 5.344 3.43-1.61 9.586-7.285 12.012-11.067 3.566-5.554 5.031-12.61 4.144-19.953-1.46-12.074-12.48-23.25-24.828-25.176-4.386-.683-5.53-.68-10.074.055m102.785-.074c-11.797 1.73-20.664 9.66-23.66 21.16-1.101 4.238-1.129 12.535-.055 16.578 2.758 10.348 11.918 18.98 22.227 20.934 9.2 1.746 18.41-.41 24.781-5.793 2.7-2.281 3.012-4.223 1.055-6.551-2.121-2.516-3.871-2.418-9.574.54-4.094 2.12-5.13 2.41-8.79 2.433-5.09.039-8.077-.73-11.648-2.996-5.203-3.297-8.21-9.493-8.21-16.914 0-8.06 3.335-14.31 9.484-17.774 2.992-1.684 3.703-1.832 8.597-1.812 5.977.027 8.907 1.113 12.743 4.722 2.96 2.781 5.277 3.137 7.625 1.16 1.394-1.171 1.859-2.054 1.859-3.523 0-1.64-.598-2.512-3.688-5.371-4.195-3.887-8.246-5.899-13.629-6.77-4.105-.668-4.718-.668-9.117-.023m93.414.21c-5.738 1.028-10.277 3.528-15.136 8.337-7.243 7.16-10.246 16.11-8.614 25.656 2.633 15.39 15.82 25.84 31.457 24.926 5.473-.32 11.024-2.18 14.563-4.883 1.074-.82 2.074-1.488 2.215-1.488.144 0 .433.851.644 1.898.942 4.719 5.957 6.297 8.903 2.797l1.535-1.824V324.78c0-7.918-.266-15.832-.594-17.59-1.047-5.64-4.266-11.234-8.98-15.601-5.004-4.633-9.848-7.09-15.73-7.985-4.97-.757-5.192-.753-10.263.153m208.739-.192c-6.516.946-11.477 3.57-16.77 8.864-3.433 3.433-6.39 8.472-7.598 12.953-1.093 4.07-.84 12.3.524 16.703 5.379 17.41 25.71 25.777 42.289 17.402 3.789-1.914 10.234-8.363 12.418-12.43 3.183-5.925 4.23-13.628 2.77-20.433-2.493-11.625-12.754-21.21-24.649-23.02-4.645-.707-4.406-.707-8.984-.039m-518.286.907c-1.808.98-2.832 2.55-2.832 4.351 0 1.79 23.551 51.164 24.98 52.371 1.923 1.618 5.11 1.34 6.86-.593 2.309-2.551 25.13-51.157 24.696-52.598-.973-3.219-4.497-5.04-7.418-3.828-1.887.781-1.38-.203-12.672 24.566-4.16 9.125-7.742 16.797-7.961 17.043-.215.246-4.473-8.426-9.461-19.265-10.656-23.168-11.649-24.516-16.192-22.047m114.532 9.675c-5.211 1.141-10.14 4.875-12.739 9.653-2.257 4.144-2.765 11.156-1.164 15.984 1.418 4.274 7.012 9.961 11.196 11.38 6.96 2.358 15.312.667 20.218-4.103 4.094-3.98 5.88-8.308 5.84-14.171-.039-5.633-1.328-9.016-4.922-12.914-4.324-4.696-12.21-7.188-18.43-5.829m195.579.247c-5.793 1.644-10.832 6.304-12.988 12.023-2.63 6.96-.606 15.816 4.71 20.617 4.418 3.996 6.711 4.824 13.348 4.824 5.043 0 6.305-.203 8.473-1.359 3.719-1.988 6.773-4.969 8.754-8.54 1.586-2.858 1.742-3.647 1.738-8.772-.004-4.95-.195-5.997-1.578-8.622-1.906-3.613-6.168-7.668-9.711-9.234-3.356-1.484-9.274-1.918-12.746-.937m102.773-.235c-17.531 4.508-20.101 28.36-3.914 36.328 9.86 4.852 21.028.805 26.04-9.433 1.323-2.707 1.605-4.086 1.597-7.801-.016-10.461-7.488-18.582-17.754-19.297-2.25-.156-4.937-.066-5.969.203m105.61-.008c-5.91 1.598-11.16 5.871-13.395 10.907-1.98 4.468-1.945 11.964.074 16.128 1.743 3.594 5.485 7.454 8.97 9.25 3.55 1.833 11.034 2.25 15.253.848 3.746-1.242 8.969-5.86 10.719-9.473 3.64-7.523 1.863-17.769-3.977-22.894-4.597-4.035-12.465-6.16-17.644-4.766"/></svg>